<svg xmlns="http://www.w3.org/2000/svg" viewBox="0 0 100 100"><path d="M67.6 88.3c-4.8-3.1-50.8-33.3-46.5-54 .6-3 1.9-9.4 8-12.4 6.9-3.4 15.1 0 16.4.6" fill="#fff"/><path d="M67.4 88.7c-2.1 2.7-2.6 3-2.8 2.7-3.8-2.4-5.3-7.3-8.1-10.5-1.5-1.6-3.5-2.7-5.3-3.9C38.7 68.6 21.9 58 16 43.4c-2.1-5.2-1.7-11.9.3-17.3C21 12.9 35.7 9.9 47.7 14.7c.3.1.3.2.2.5l-.1.6v.2l-.1.3c-.2.5-.5 1.6-.6 2.1-.3.9-1 2.7-1.3 3.6-.8 1.8-2.4 5-3.2 6.8-.1.2-.4.7-.5.8-.1.1-.1 0-.1 0l-.5-.2C33.9 27 29.4 28 27.4 36.1 26.1 41 28.7 46.6 31.1 51c5.1 9.2 12.8 17.8 20.6 25.3 1.6 1.5 3.2 3.1 5.2 4.1 2.1.9 4.5 1.3 6.9 1.7 2 .4 3.8 1 5.5 2.1.3 0 .2.6-1.4 3.6l-.5.9z" fill="#8436d6"/><circle cx="56.9" cy="50" r="17.9" fill="#2770f2"/></svg>