<?xml version="1.0" encoding="utf-8"?>
<!-- Generator: Adobe Illustrator 26.0.1, SVG Export Plug-In . SVG Version: 6.00 Build 0)  -->
<svg version="1.1" id="Layer_1" xmlns="http://www.w3.org/2000/svg" xmlns:xlink="http://www.w3.org/1999/xlink" x="0px" y="0px"
	 viewBox="0 0 100 100" style="enable-background:new 0 0 100 100;" xml:space="preserve">
<style type="text/css">
	.st0{fill:#FFFFFF;}
	.st1{fill:#8436D6;}
	.st2{fill:#2770F2;}
</style>
<g>
	<path class="st0" d="M67.6,88.3c-4.8-3.1-50.8-33.3-46.5-54c0.6-3,1.9-9.4,8-12.4c6.9-3.4,15.1,0,16.4,0.6"/>
	<path class="st1" d="M67.4,88.7c-2.1,2.7-2.6,3-2.8,2.7c-3.8-2.4-5.3-7.3-8.1-10.5C55,79.3,53,78.2,51.2,77
		c-12.5-8.4-29.3-19-35.2-33.6c-2.1-5.2-1.7-11.9,0.3-17.3C21,12.9,35.7,9.9,47.7,14.7c0.3,0.1,0.3,0.2,0.2,0.5c0,0-0.1,0.6-0.1,0.6
		s0,0.2,0,0.2s-0.1,0.3-0.1,0.3c-0.2,0.5-0.5,1.6-0.6,2.1c-0.3,0.9-1,2.7-1.3,3.6c-0.8,1.8-2.4,5-3.2,6.8c-0.1,0.2-0.4,0.7-0.5,0.8
		c-0.1,0.1-0.1,0-0.1,0c0,0-0.5-0.2-0.5-0.2C33.9,27,29.4,28,27.4,36.1C26.1,41,28.7,46.6,31.1,51c5.1,9.2,12.8,17.8,20.6,25.3
		c1.6,1.5,3.2,3.1,5.2,4.1c2.1,0.9,4.5,1.3,6.9,1.7c2,0.4,3.8,1,5.5,2.1c0.3,0,0.2,0.6-1.4,3.6L67.4,88.7L67.4,88.7z"/>
</g>
<circle class="st2" cx="56.9" cy="50" r="17.9"/>
</svg>
